<svg width="72.000000" height="72.000000" viewBox="0 0 72 72" fill="none" xmlns="http://www.w3.org/2000/svg" xmlns:xlink="http://www.w3.org/1999/xlink">
	<path d="M0 0L52 0C63.0459 0 72 8.9541 72 20L72 52C72 63.0459 63.0459 72 52 72L0 72L0 0Z" fill="#7C5DFA" fill-opacity="1.000000" fill-rule="evenodd"/>
	<path d="M52 0C63.0459 0 72 8.9541 72 20L72 52C72 63.0459 63.0459 72 52 72L0 72L0 0L52 0Z" stroke="#979797" stroke-opacity="0" stroke-width="0.000000"/>
	<mask id="mask0_1481" mask-type="alpha" maskUnits="userSpaceOnUse" x="0.000000" y="0.000000" width="72.000000" height="72.000000">
		<path d="M0 0L52 0C63.0459 0 72 8.9541 72 20L72 52C72 63.0459 63.0459 72 52 72L0 72L0 0Z" fill="#7C5DFA" fill-opacity="1.000000" fill-rule="evenodd"/>
		<path d="M52 0C63.0459 0 72 8.9541 72 20L72 52C72 63.0459 63.0459 72 52 72L0 72L0 0L52 0Z" stroke="#979797" stroke-opacity="0" stroke-width="0.000000"/>
	</mask>
	<g mask="url(#mask0_1481)">
		<path d="M72 36.3496L20 36.3496C8.9541 36.3496 0 45.3037 0 56.3496L0 88.3496C0 99.3955 8.9541 108.35 20 108.35L72 108.35L72 36.3496Z" fill="#9277FF" fill-opacity="1.000000" fill-rule="evenodd"/>
		<path d="M20 36.3496C8.9541 36.3496 0 45.3037 0 56.3496L0 88.3496C0 99.3955 8.9541 108.35 20 108.35L72 108.35L72 36.3496L20 36.3496Z" stroke="#979797" stroke-opacity="0" stroke-width="0.000000"/>
	</g>
</svg>
