<svg width="28.000000" height="26.000000" viewBox="0 0 28 26" fill="none" xmlns="http://www.w3.org/2000/svg" xmlns:xlink="http://www.w3.org/1999/xlink">
	<desc>
			Created with Pixso.
	</desc>
	<defs/>
	<mask id="mask_0_1486" fill="white">
		<path id="Logo" d="M7.48584 0L14 12.8994L20.5142 0C24.9653 2.30859 28 6.91016 28 12.21C28 19.8262 21.7319 26 14 26C6.26807 26 0 19.8262 0 12.21C0 6.91016 3.03467 2.30859 7.48584 0Z" clip-rule="evenodd" fill="" fill-opacity="1.000000" fill-rule="evenodd"/>
	</mask>
	<path id="Logo" d="M7.48584 0L14 12.8994L20.5142 0C24.9653 2.30859 28 6.91016 28 12.21C28 19.8262 21.7319 26 14 26C6.26807 26 0 19.8262 0 12.21C0 6.91016 3.03467 2.30859 7.48584 0Z" clip-rule="evenodd" fill="#FFFFFF" fill-opacity="1.000000" fill-rule="evenodd" mask="url(#mask_0_1486)"/>
	<path id="Logo" d="" fill="#979797" fill-opacity="0.000000" fill-rule="nonzero"/>
</svg>
